Coordinates
version=1
nRows=31
nColumns=28
inDegrees=yes

Units are S.I. units (second, meters, Newtons, ...)
If the header above contains a line with 'inDegrees', this indicates whether rotational values are in degrees (yes) or radians (no).

endheader
time	pelvis_tilt	pelvis_list	pelvis_rot	pelvis_tx	pelvis_ty	pelvis_tz	hip_flexion_r	hip_adduction_r	hip_rotation_r	knee_adduction_r	knee_rotation_r	knee_flexion_r	ankle_adduction_r	ankle_rotation_r	ankle_flexion_r	hip_flexion_l	hip_adduction_l	hip_rotation_l	knee_adduction_l	knee_rotation_l	knee_flexion_l	ankle_adduction_l	ankle_rotation_l	ankle_flexion_l	lumbar_extension	lumbar_bending	lumbar_rotation
5.60000	5129.386434	-5211.377835	5197.982912	0.000000	0.900000	0.000000	-29.762740	73.446932	7.763254	14.487774	-56.969099	-43.680720	-64.694535	151.881545	-6.238398	9.895117	23.570559	-109.358318	-4.900872	-6.547957	185.970837	-110.385290	55.274139	154.400756	0.000000	0.000000	0.000000
5.61000	5129.157842	-5211.921257	5199.821359	0.000000	0.900000	0.000000	-29.425005	73.200598	5.509640	14.437735	-56.357045	-43.365845	-63.896037	151.463800	-6.443124	9.320025	23.180722	-110.053708	-5.020205	-4.038569	185.633236	-110.423877	55.879198	154.921505	0.000000	0.000000	0.000000
5.62000	5128.761333	-5211.899884	5200.601408	0.000000	0.900000	0.000000	-28.950827	72.130211	4.800195	14.835204	-55.259390	-43.558631	-63.476384	150.353304	-6.680576	9.013035	23.583724	-109.235564	-5.502773	-3.269425	185.076658	-109.988020	55.421104	155.087716	0.000000	0.000000	0.000000
5.63000	5128.542548	-5211.660360	5200.777877	0.000000	0.900000	0.000000	-28.705628	70.994249	4.640977	15.254487	-54.502356	-43.861546	-63.091999	150.246314	-6.819399	9.127276	24.522412	-107.502107	-5.838672	-4.516002	185.023382	-110.070299	54.494223	155.229133	0.000000	0.000000	0.000000
5.64000	5128.313765	-5211.485732	5200.673016	0.000000	0.900000	0.000000	-28.215857	69.792860	5.294462	15.711388	-54.962390	-43.867103	-62.812179	150.465693	-7.127725	9.546426	25.335199	-107.435435	-5.773054	-4.371067	184.646364	-110.526135	54.181376	154.701676	0.000000	0.000000	0.000000
5.65000	5127.514068	-5211.049359	5199.849093	0.000000	0.900000	0.000000	-27.157908	69.666254	6.491085	15.307768	-54.540645	-43.915002	-62.788293	150.403845	-7.183378	10.549845	26.352408	-108.882148	-5.868638	-3.684863	184.257841	-110.643014	53.667744	154.139650	0.000000	0.000000	0.000000
5.66000	5127.151877	-5211.014691	5199.371859	0.000000	0.900000	0.000000	-26.629420	69.425076	6.678869	14.984816	-53.052484	-44.090977	-62.427750	148.598163	-7.817385	10.544873	26.778353	-109.476701	-5.514282	-3.755370	183.212115	-111.184727	54.076567	153.082868	0.000000	0.000000	0.000000
5.67000	5127.016008	-5210.965895	5199.533277	0.000000	0.900000	0.000000	-26.280707	68.616457	5.476094	15.167130	-52.585958	-44.121269	-61.695843	148.816471	-8.432727	10.326732	27.263013	-108.893811	-5.592948	-4.816583	182.369883	-111.677526	55.050649	152.455042	0.000000	0.000000	0.000000
5.68000	5126.424977	-5211.043171	5199.725894	0.000000	0.900000	0.000000	-25.906151	68.305872	6.149987	14.994930	-53.709862	-44.529676	-61.234523	148.603297	-8.915887	10.644690	27.438363	-108.340704	-5.783831	-5.797225	181.815762	-111.928348	56.058664	152.162672	0.000000	0.000000	0.000000
5.69000	5125.140699	-5211.577794	5199.736095	0.000000	0.900000	0.000000	-25.216030	68.901733	6.011527	14.764665	-53.959387	-45.377330	-60.885152	148.405060	-9.609742	11.282022	26.942778	-108.435596	-5.566506	-6.177125	181.194956	-112.185553	56.998791	151.931577	0.000000	0.000000	0.000000
5.70000	5124.333634	-5211.956456	5200.010754	0.000000	0.900000	0.000000	-24.590594	68.965745	5.256335	15.171155	-53.555124	-45.731908	-61.224567	148.701171	-9.764333	11.373524	26.638832	-109.364141	-5.409510	-5.961649	180.218376	-112.288572	58.232266	151.491281	0.000000	0.000000	0.000000
5.71000	5123.764712	-5211.709752	5200.147154	0.000000	0.900000	0.000000	-23.786012	68.416956	5.582158	15.185327	-54.029546	-46.071922	-60.691613	149.362497	-10.486970	11.852882	27.698026	-109.355206	-6.163712	-5.148899	180.018113	-112.210164	57.033650	151.069173	0.000000	0.000000	0.000000
5.72000	5123.069074	-5211.635548	5200.474483	0.000000	0.900000	0.000000	-23.139509	68.250747	7.282282	14.654198	-56.054392	-46.439136	-59.596561	149.405987	-11.632582	12.292362	28.522254	-110.205551	-6.482520	-4.124579	179.564316	-112.549341	57.302814	150.605295	0.000000	0.000000	0.000000
5.73000	5121.910066	-5212.140434	5201.250478	0.000000	0.900000	0.000000	-22.009015	68.508077	7.296832	14.636740	-60.229952	-45.726420	-56.417252	153.366452	-12.778426	12.868425	28.900271	-110.408701	-6.718051	-3.759363	179.298092	-113.005207	57.953824	150.346507	0.000000	0.000000	0.000000
5.74000	5120.102305	-5213.396370	5203.512737	0.000000	0.900000	0.000000	-19.330588	69.120189	6.948505	15.142864	-65.911471	-42.669102	-49.576276	157.334755	-15.091194	13.813121	29.058658	-109.710452	-7.826375	-2.886831	179.442250	-112.553772	58.803426	149.834732	0.000000	0.000000	0.000000
5.75000	5117.784768	-5215.570383	5207.674768	0.000000	0.900000	0.000000	-14.521268	70.100969	10.566846	14.718641	-72.066903	-36.311189	-38.894713	156.417523	-18.652410	14.738109	28.592093	-111.140651	-8.829675	1.743943	179.316207	-112.247179	59.794404	148.588889	0.000000	0.000000	0.000000
5.76000	5115.642532	-5219.930393	5217.921867	0.000000	0.900000	0.000000	-7.496665	70.128573	15.769805	16.804299	-86.735761	-25.240831	-24.980675	155.204822	-22.224539	14.479549	27.930427	-110.748025	-11.101468	9.944753	178.993863	-112.999152	61.959543	145.718596	0.000000	0.000000	0.000000
5.77000	5110.833023	-5224.219761	5235.271776	0.000000	0.900000	0.000000	7.098565	68.879966	16.911280	20.406654	-104.351725	-8.341356	-10.370053	153.558508	-25.075577	16.801301	27.497327	-107.045897	-12.023529	17.381459	177.799921	-115.001576	69.410131	142.105697	0.000000	0.000000	0.000000
5.78000	5105.367860	-5228.307341	5258.314971	0.000000	0.900000	0.000000	25.729135	67.697423	16.559552	24.503794	-125.281115	12.414119	2.577721	150.897695	-25.912078	19.965240	28.575470	-102.702597	-13.124637	33.027739	177.115115	-117.780372	73.849565	138.964365	0.000000	0.000000	0.000000
5.79000	5099.398340	-5233.353425	5290.673406	0.000000	0.900000	0.000000	47.204904	66.844777	6.421438	27.991266	-147.641437	35.695746	14.074316	150.738194	-25.278224	22.827570	29.092355	-91.913181	-13.339583	50.044514	175.482745	-121.676579	79.134278	136.192280	0.000000	0.000000	0.000000
5.80000	5092.395003	-5238.033334	5329.119383	0.000000	0.900000	0.000000	72.083095	67.369488	-7.316194	28.204606	-168.242020	60.275646	25.136553	146.364265	-24.722072	26.505818	32.271504	-83.171518	-15.190797	71.454531	173.450366	-126.463737	87.769086	133.578070	0.000000	0.000000	0.000000
5.81000	5086.105543	-5242.061441	5371.548214	0.000000	0.900000	0.000000	97.575527	66.403341	-15.327041	27.061154	-192.300317	83.543217	35.881026	135.881952	-25.892648	28.744484	38.158594	-76.801757	-18.336400	96.300793	169.271843	-132.067703	99.504125	130.205565	0.000000	0.000000	0.000000
5.82000	5080.547539	-5245.641065	5417.852406	0.000000	0.900000	0.000000	122.305687	64.001751	-21.552320	24.674086	-216.418545	103.298711	46.577186	119.744324	-29.978201	30.293002	44.628503	-65.252857	-20.528249	119.706801	163.523508	-137.687930	111.019844	125.817524	0.000000	0.000000	0.000000
5.83000	5079.545433	-5249.049842	5466.166232	0.000000	0.900000	0.000000	141.791888	59.583967	-22.515173	22.135037	-243.989121	118.890787	56.657164	100.578956	-37.025654	27.655029	48.733845	-44.069820	-20.315749	138.671702	155.974815	-142.191004	119.080685	120.279641	0.000000	0.000000	0.000000
5.84000	5080.216048	-5251.271046	5513.779969	0.000000	0.900000	0.000000	159.613581	55.117228	-24.500754	18.018977	-267.236827	132.250851	65.550365	77.975337	-44.966037	24.664864	52.583185	-18.575653	-19.250510	154.642615	147.921880	-145.896989	125.707783	114.139751	0.000000	0.000000	0.000000
5.85000	5080.543718	-5253.104210	5560.044768	0.000000	0.900000	0.000000	179.510529	49.885356	-28.411071	15.241494	-290.148138	147.649729	73.393443	57.520520	-52.228141	23.682079	56.919660	3.337245	-17.889107	172.431966	140.555362	-149.823573	132.977655	107.718532	0.000000	0.000000	0.000000
5.86000	5078.206044	-5256.136935	5605.604445	0.000000	0.900000	0.000000	207.167476	46.677047	-37.880267	14.469065	-310.298018	171.949568	80.091640	40.443771	-56.756825	27.105578	58.767482	24.252810	-13.621929	186.931804	134.061960	-153.170116	143.757216	101.554649	0.000000	0.000000	0.000000
5.87000	5073.752348	-5261.110776	5649.999986	0.000000	0.900000	0.000000	244.170619	47.397963	-46.033914	16.871899	-332.837217	210.407646	85.260086	25.299919	-56.498156	33.104354	50.545140	35.407573	0.372818	206.750002	124.823809	-157.103575	157.139509	95.509700	0.000000	0.000000	0.000000
5.88000	5070.448066	-5268.361074	5694.594364	0.000000	0.900000	0.000000	288.488697	52.303971	-57.401112	24.808310	-354.261613	266.009797	88.618924	10.866987	-50.466737	39.838051	33.528057	23.640021	23.773699	248.462370	113.927974	-162.620241	170.769113	87.521343	0.000000	0.000000	0.000000
5.89000	5074.427324	-5277.628311	5739.699768	0.000000	0.900000	0.000000	334.556798	59.906358	-73.900229	38.134284	-377.558856	338.879997	92.309713	2.423219	-40.961279	37.991480	17.367199	9.894774	46.721404	282.648442	100.683814	-172.391790	194.933786	77.992737	0.000000	0.000000	0.000000
5.90000	5077.095464	-5286.800919	5784.117145	0.000000	0.900000	0.000000	391.263481	68.389212	-90.568390	59.004195	-402.816707	427.057572	97.633691	-0.052124	-30.099044	36.928010	-2.033907	7.656805	69.691969	316.881769	84.363702	-182.402009	206.932602	69.047651	0.000000	0.000000	0.000000
